<?xml version="1.0" encoding="UTF-8" standalone="no"?>
<!-- Created with Inkscape (http://www.inkscape.org/) -->

<svg
   xmlns:dc="http://purl.org/dc/elements/1.1/"
   xmlns:cc="http://creativecommons.org/ns#"
   xmlns:rdf="http://www.w3.org/1999/02/22-rdf-syntax-ns#"
   xmlns:svg="http://www.w3.org/2000/svg"
   xmlns="http://www.w3.org/2000/svg"
   xmlns:sodipodi="http://sodipodi.sourceforge.net/DTD/sodipodi-0.dtd"
   xmlns:inkscape="http://www.inkscape.org/namespaces/inkscape"
   width="744.09448819"
   height="1052.3622047"
   id="svg2"
   version="1.1"
   inkscape:version="0.48.4 r9939"
   sodipodi:docname="New document 1">
  <defs
     id="defs4" />
  <sodipodi:namedview
     id="base"
     pagecolor="#ffffff"
     bordercolor="#666666"
     borderopacity="1.0"
     inkscape:pageopacity="0.0"
     inkscape:pageshadow="2"
     inkscape:zoom="1.4142136"
     inkscape:cx="319.589"
     inkscape:cy="969.41734"
     inkscape:document-units="px"
     inkscape:current-layer="layer1"
     showgrid="false"
     inkscape:window-width="1920"
     inkscape:window-height="1030"
     inkscape:window-x="0"
     inkscape:window-y="0"
     inkscape:window-maximized="1" />
  <metadata
     id="metadata7">
    <rdf:RDF>
      <cc:Work
         rdf:about="">
        <dc:format>image/svg+xml</dc:format>
        <dc:type
           rdf:resource="http://purl.org/dc/dcmitype/StillImage" />
        <dc:title></dc:title>
      </cc:Work>
    </rdf:RDF>
  </metadata>
  <g
     inkscape:label="Layer 1"
     inkscape:groupmode="layer"
     id="layer1">
    <rect
       style="fill:#002b36;fill-opacity:1;stroke:none"
       id="rect2985"
       width="15.900239"
       height="15.900239"
       x="13.332535"
       y="30.862183" />
    <path
       sodipodi:type="arc"
       style="fill:#002b36;fill-opacity:1;stroke:#657b83;stroke-width:1.05065572;stroke-miterlimit:4;stroke-opacity:1;stroke-dasharray:none"
       id="path3755"
       sodipodi:cx="62.137009"
       sodipodi:cy="32.449036"
       sodipodi:rx="9.6343298"
       sodipodi:ry="9.280777"
       d="m 71.771338,32.449036 a 9.6343298,9.280777 0 1 1 -19.268659,0 9.6343298,9.280777 0 1 1 19.268659,0 z"
       transform="matrix(0.62540456,0,0,0.64922945,-17.578114,17.745433)" />
    <rect
       y="30.862183"
       x="31.040524"
       height="15.900239"
       width="15.900239"
       id="rect3757"
       style="fill:#002b36;fill-opacity:1;stroke:none" />
    <path
       transform="matrix(0.62540456,0,0,0.64922945,0.12987364,17.745433)"
       d="m 71.771338,32.449036 a 9.6343298,9.280777 0 1 1 -19.268659,0 9.6343298,9.280777 0 1 1 19.268659,0 z"
       sodipodi:ry="9.280777"
       sodipodi:rx="9.6343298"
       sodipodi:cy="32.449036"
       sodipodi:cx="62.137009"
       id="path3759"
       style="fill:#d33682;fill-opacity:1;stroke:#657b83;stroke-width:1.05065572;stroke-miterlimit:4;stroke-opacity:1;stroke-dasharray:none"
       sodipodi:type="arc" />
    <rect
       style="fill:#002b36;fill-opacity:1;stroke:none"
       id="rect3765"
       width="15.900239"
       height="15.900239"
       x="72.612579"
       y="31.633791" />
    <path
       style="fill:#ffff00;stroke:#d33682;stroke-width:0.63779563px;stroke-linecap:butt;stroke-linejoin:miter;stroke-opacity:1"
       d="M 74.521501,33.542714 86.603899,45.625109"
       id="path3807"
       inkscape:connector-curvature="0" />
    <path
       inkscape:connector-curvature="0"
       id="path3842"
       d="M 86.603899,33.542714 74.521501,45.625109"
       style="fill:#ffff00;stroke:#d33682;stroke-width:0.63779563px;stroke-linecap:butt;stroke-linejoin:miter;stroke-opacity:1" />
    <rect
       y="30.862183"
       x="13.332535"
       height="15.900239"
       width="15.900239"
       id="rect3844"
       style="fill:#002b36;fill-opacity:1;stroke:none" />
    <path
       transform="matrix(0.62540456,0,0,0.64922945,-17.578114,17.745433)"
       d="m 71.771338,32.449036 a 9.6343298,9.280777 0 1 1 -19.268659,0 9.6343298,9.280777 0 1 1 19.268659,0 z"
       sodipodi:ry="9.280777"
       sodipodi:rx="9.6343298"
       sodipodi:cy="32.449036"
       sodipodi:cx="62.137009"
       id="path3846"
       style="fill:#002b36;fill-opacity:1;stroke:#657b83;stroke-width:1.05065572;stroke-miterlimit:4;stroke-opacity:1;stroke-dasharray:none"
       sodipodi:type="arc" />
    <rect
       style="fill:#002b36;fill-opacity:1;stroke:none"
       id="rect3848"
       width="15.900239"
       height="15.900239"
       x="31.040524"
       y="30.862183" />
    <path
       sodipodi:type="arc"
       style="fill:#d33682;fill-opacity:1;stroke:#657b83;stroke-width:1.05065572;stroke-miterlimit:4;stroke-opacity:1;stroke-dasharray:none"
       id="path3850"
       sodipodi:cx="62.137009"
       sodipodi:cy="32.449036"
       sodipodi:rx="9.6343298"
       sodipodi:ry="9.280777"
       d="m 71.771338,32.449036 a 9.6343298,9.280777 0 1 1 -19.268659,0 9.6343298,9.280777 0 1 1 19.268659,0 z"
       transform="matrix(0.62540456,0,0,0.64922945,0.12987364,17.745433)" />
    <rect
       y="31.633791"
       x="72.612579"
       height="15.900239"
       width="15.900239"
       id="rect3852"
       style="fill:#002b36;fill-opacity:1;stroke:none" />
    <path
       inkscape:connector-curvature="0"
       id="path3854"
       d="M 74.521501,33.542714 86.603899,45.625109"
       style="fill:#ffff00;stroke:#d33682;stroke-width:0.63779563px;stroke-linecap:butt;stroke-linejoin:miter;stroke-opacity:1" />
    <path
       style="fill:#ffff00;stroke:#d33682;stroke-width:0.63779563px;stroke-linecap:butt;stroke-linejoin:miter;stroke-opacity:1"
       d="M 86.603899,33.542714 74.521501,45.625109"
       id="path3856"
       inkscape:connector-curvature="0" />
    <rect
       y="57.517792"
       x="12.935029"
       height="31.801146"
       width="31.801146"
       id="rect3858"
       style="fill:#002b36;fill-opacity:1;stroke:none" />
    <path
       transform="matrix(1.2508353,0,0,1.2984861,-48.887565,31.283739)"
       d="m 71.771338,32.449036 a 9.6343298,9.280777 0 1 1 -19.268659,0 9.6343298,9.280777 0 1 1 19.268659,0 z"
       sodipodi:ry="9.280777"
       sodipodi:rx="9.6343298"
       sodipodi:cy="32.449036"
       sodipodi:cx="62.137009"
       id="path3860"
       style="fill:#002b36;fill-opacity:1;stroke:#657b83;stroke-width:1.05065572;stroke-miterlimit:4;stroke-opacity:1;stroke-dasharray:none"
       sodipodi:type="arc" />
    <rect
       style="fill:#002b36;fill-opacity:1;stroke:none"
       id="rect3862"
       width="31.801146"
       height="31.801146"
       x="48.351746"
       y="57.517792" />
    <path
       sodipodi:type="arc"
       style="fill:#d33682;fill-opacity:1;stroke:#657b83;stroke-width:1.05065572;stroke-miterlimit:4;stroke-opacity:1;stroke-dasharray:none"
       id="path3864"
       sodipodi:cx="62.137009"
       sodipodi:cy="32.449036"
       sodipodi:rx="9.6343298"
       sodipodi:ry="9.280777"
       d="m 71.771338,32.449036 a 9.6343298,9.280777 0 1 1 -19.268659,0 9.6343298,9.280777 0 1 1 19.268659,0 z"
       transform="matrix(1.2508353,0,0,1.2984861,-13.470847,31.283739)" />
    <rect
       y="59.061039"
       x="131.4976"
       height="31.801146"
       width="31.801146"
       id="rect3866"
       style="fill:#002b36;fill-opacity:1;stroke:none" />
    <path
       inkscape:connector-curvature="0"
       id="path3868"
       d="M 135.31552,62.878962 159.48083,87.04426"
       style="fill:#ffff00;stroke:#d33682;stroke-width:1.27561796px;stroke-linecap:butt;stroke-linejoin:miter;stroke-opacity:1" />
    <path
       style="fill:#ffff00;stroke:#d33682;stroke-width:1.27561796px;stroke-linecap:butt;stroke-linejoin:miter;stroke-opacity:1"
       d="M 159.48083,62.878962 135.31552,87.04426"
       id="path3870"
       inkscape:connector-curvature="0" />
    <rect
       style="fill:#002b36;fill-opacity:1;stroke:none"
       id="rect3872"
       width="31.801146"
       height="31.801146"
       x="12.935029"
       y="57.517792" />
    <path
       sodipodi:type="arc"
       style="fill:#002b36;fill-opacity:1;stroke:#657b83;stroke-width:1.05065572;stroke-miterlimit:4;stroke-opacity:1;stroke-dasharray:none"
       id="path3874"
       sodipodi:cx="62.137009"
       sodipodi:cy="32.449036"
       sodipodi:rx="9.6343298"
       sodipodi:ry="9.280777"
       d="m 71.771338,32.449036 a 9.6343298,9.280777 0 1 1 -19.268659,0 9.6343298,9.280777 0 1 1 19.268659,0 z"
       transform="matrix(1.2508353,0,0,1.2984861,-48.887565,31.283739)" />
    <rect
       y="57.517792"
       x="48.351746"
       height="31.801146"
       width="31.801146"
       id="rect3876"
       style="fill:#002b36;fill-opacity:1;stroke:none" />
    <path
       transform="matrix(1.2508353,0,0,1.2984861,-13.470847,31.283739)"
       d="m 71.771338,32.449036 a 9.6343298,9.280777 0 1 1 -19.268659,0 9.6343298,9.280777 0 1 1 19.268659,0 z"
       sodipodi:ry="9.280777"
       sodipodi:rx="9.6343298"
       sodipodi:cy="32.449036"
       sodipodi:cx="62.137009"
       id="path3878"
       style="fill:#d33682;fill-opacity:1;stroke:#657b83;stroke-width:1.05065572;stroke-miterlimit:4;stroke-opacity:1;stroke-dasharray:none"
       sodipodi:type="arc" />
    <rect
       style="fill:#002b36;fill-opacity:1;stroke:none"
       id="rect3880"
       width="31.801146"
       height="31.801146"
       x="131.4976"
       y="59.061039" />
    <path
       style="fill:#ffff00;stroke:#d33682;stroke-width:1.27561796px;stroke-linecap:butt;stroke-linejoin:miter;stroke-opacity:1"
       d="M 135.31552,62.878962 159.48083,87.04426"
       id="path3882"
       inkscape:connector-curvature="0" />
    <path
       inkscape:connector-curvature="0"
       id="path3884"
       d="M 159.48083,62.878962 135.31552,87.04426"
       style="fill:#ffff00;stroke:#d33682;stroke-width:1.27561796px;stroke-linecap:butt;stroke-linejoin:miter;stroke-opacity:1" />
    <rect
       style="fill:#002b36;fill-opacity:1;stroke:none"
       id="rect3886"
       width="63.601536"
       height="63.601536"
       x="14.349242"
       y="108.72192" />
    <path
       sodipodi:type="arc"
       style="fill:#002b36;fill-opacity:1;stroke:#657b83;stroke-width:1.05065572;stroke-miterlimit:4;stroke-opacity:1;stroke-dasharray:none"
       id="path3888"
       sodipodi:cx="62.137009"
       sodipodi:cy="32.449036"
       sodipodi:rx="9.6343298"
       sodipodi:ry="9.280777"
       d="m 71.771338,32.449036 a 9.6343298,9.280777 0 1 1 -19.268659,0 9.6343298,9.280777 0 1 1 19.268659,0 z"
       transform="matrix(2.5016408,0,0,2.5969413,-109.29448,56.254434)" />
    <rect
       y="108.72192"
       x="85.181831"
       height="63.601536"
       width="63.601536"
       id="rect3890"
       style="fill:#002b36;fill-opacity:1;stroke:none" />
    <path
       transform="matrix(2.5016408,0,0,2.5969413,-38.461881,56.254434)"
       d="m 71.771338,32.449036 a 9.6343298,9.280777 0 1 1 -19.268659,0 9.6343298,9.280777 0 1 1 19.268659,0 z"
       sodipodi:ry="9.280777"
       sodipodi:rx="9.6343298"
       sodipodi:cy="32.449036"
       sodipodi:cx="62.137009"
       id="path3892"
       style="fill:#d33682;fill-opacity:1;stroke:#657b83;stroke-width:1.05065572;stroke-miterlimit:4;stroke-opacity:1;stroke-dasharray:none"
       sodipodi:type="arc" />
    <rect
       style="fill:#002b36;fill-opacity:1;stroke:none"
       id="rect3894"
       width="63.601536"
       height="63.601536"
       x="251.47157"
       y="111.80838" />
    <path
       style="fill:#ffff00;stroke:#d33682;stroke-width:2.55120564px;stroke-linecap:butt;stroke-linejoin:miter;stroke-opacity:1"
       d="m 259.10731,119.44412 48.33005,48.33003"
       id="path3896"
       inkscape:connector-curvature="0" />
    <path
       inkscape:connector-curvature="0"
       id="path3898"
       d="m 307.43736,119.44412 -48.33005,48.33003"
       style="fill:#ffff00;stroke:#d33682;stroke-width:2.55120564px;stroke-linecap:butt;stroke-linejoin:miter;stroke-opacity:1" />
    <rect
       y="108.72192"
       x="14.349242"
       height="63.601536"
       width="63.601536"
       id="rect3900"
       style="fill:#002b36;fill-opacity:1;stroke:none" />
    <path
       transform="matrix(2.5016408,0,0,2.5969413,-109.29448,56.254434)"
       d="m 71.771338,32.449036 a 9.6343298,9.280777 0 1 1 -19.268659,0 9.6343298,9.280777 0 1 1 19.268659,0 z"
       sodipodi:ry="9.280777"
       sodipodi:rx="9.6343298"
       sodipodi:cy="32.449036"
       sodipodi:cx="62.137009"
       id="path3902"
       style="fill:#002b36;fill-opacity:1;stroke:#657b83;stroke-width:1.05065572;stroke-miterlimit:4;stroke-opacity:1;stroke-dasharray:none"
       sodipodi:type="arc" />
    <rect
       style="fill:#002b36;fill-opacity:1;stroke:none"
       id="rect3904"
       width="63.601536"
       height="63.601536"
       x="85.181831"
       y="108.72192" />
    <path
       sodipodi:type="arc"
       style="fill:#d33682;fill-opacity:1;stroke:#657b83;stroke-width:1.05065572;stroke-miterlimit:4;stroke-opacity:1;stroke-dasharray:none"
       id="path3906"
       sodipodi:cx="62.137009"
       sodipodi:cy="32.449036"
       sodipodi:rx="9.6343298"
       sodipodi:ry="9.280777"
       d="m 71.771338,32.449036 a 9.6343298,9.280777 0 1 1 -19.268659,0 9.6343298,9.280777 0 1 1 19.268659,0 z"
       transform="matrix(2.5016408,0,0,2.5969413,-38.461881,56.254434)" />
    <rect
       y="111.80838"
       x="251.47157"
       height="63.601536"
       width="63.601536"
       id="rect3908"
       style="fill:#002b36;fill-opacity:1;stroke:none" />
    <path
       inkscape:connector-curvature="0"
       id="path3910"
       d="m 259.10731,119.44412 48.33005,48.33003"
       style="fill:#ffff00;stroke:#d33682;stroke-width:2.55120564px;stroke-linecap:butt;stroke-linejoin:miter;stroke-opacity:1" />
    <path
       style="fill:#ffff00;stroke:#d33682;stroke-width:2.55120564px;stroke-linecap:butt;stroke-linejoin:miter;stroke-opacity:1"
       d="m 307.43736,119.44412 -48.33005,48.33003"
       id="path3912"
       inkscape:connector-curvature="0" />
  </g>
</svg>
